<svg id="visual" viewBox="0 0 900 600" width="900" height="600" xmlns="http://www.w3.org/2000/svg" xmlns:xlink="http://www.w3.org/1999/xlink" version="1.1"><rect x="0" y="0" width="900" height="600" fill="#001220"></rect><path d="M0 219L13.7 219.3C27.3 219.7 54.7 220.3 82 229.8C109.3 239.3 136.7 257.7 163.8 266.5C191 275.3 218 274.7 245.2 264.7C272.3 254.7 299.7 235.3 327 229.2C354.3 223 381.7 230 409 229.8C436.3 229.7 463.7 222.3 491 225.7C518.3 229 545.7 243 573 244.8C600.3 246.7 627.7 236.3 654.8 237.8C682 239.3 709 252.7 736.2 253.8C763.3 255 790.7 244 818 239C845.3 234 872.7 235 886.3 235.5L900 236L900 0L886.3 0C872.7 0 845.3 0 818 0C790.7 0 763.3 0 736.2 0C709 0 682 0 654.8 0C627.7 0 600.3 0 573 0C545.7 0 518.3 0 491 0C463.7 0 436.3 0 409 0C381.7 0 354.3 0 327 0C299.7 0 272.3 0 245.2 0C218 0 191 0 163.8 0C136.7 0 109.3 0 82 0C54.7 0 27.3 0 13.7 0L0 0Z" fill="#ff0066"></path><path d="M0 173L13.7 175.2C27.3 177.3 54.7 181.7 82 183C109.3 184.3 136.7 182.7 163.8 187.5C191 192.3 218 203.7 245.2 203.5C272.3 203.3 299.7 191.7 327 189.8C354.3 188 381.7 196 409 195.2C436.3 194.3 463.7 184.7 491 178.3C518.3 172 545.7 169 573 167.7C600.3 166.3 627.7 166.7 654.8 166.5C682 166.3 709 165.7 736.2 172.7C763.3 179.7 790.7 194.3 818 200C845.3 205.7 872.7 202.3 886.3 200.7L900 199L900 0L886.3 0C872.7 0 845.3 0 818 0C790.7 0 763.3 0 736.2 0C709 0 682 0 654.8 0C627.7 0 600.3 0 573 0C545.7 0 518.3 0 491 0C463.7 0 436.3 0 409 0C381.7 0 354.3 0 327 0C299.7 0 272.3 0 245.2 0C218 0 191 0 163.8 0C136.7 0 109.3 0 82 0C54.7 0 27.3 0 13.7 0L0 0Z" fill="#ff2a54"></path><path d="M0 141L13.7 138.2C27.3 135.3 54.7 129.7 82 127C109.3 124.3 136.7 124.7 163.8 126.7C191 128.7 218 132.3 245.2 132.3C272.3 132.3 299.7 128.7 327 131.3C354.3 134 381.7 143 409 142.7C436.3 142.3 463.7 132.7 491 128.8C518.3 125 545.7 127 573 125.8C600.3 124.7 627.7 120.3 654.8 121.7C682 123 709 130 736.2 136.2C763.3 142.3 790.7 147.7 818 148.3C845.3 149 872.7 145 886.3 143L900 141L900 0L886.3 0C872.7 0 845.3 0 818 0C790.7 0 763.3 0 736.2 0C709 0 682 0 654.8 0C627.7 0 600.3 0 573 0C545.7 0 518.3 0 491 0C463.7 0 436.3 0 409 0C381.7 0 354.3 0 327 0C299.7 0 272.3 0 245.2 0C218 0 191 0 163.8 0C136.7 0 109.3 0 82 0C54.7 0 27.3 0 13.7 0L0 0Z" fill="#ff4244"></path><path d="M0 69L13.7 68.8C27.3 68.7 54.7 68.3 82 72.5C109.3 76.7 136.7 85.3 163.8 89.5C191 93.7 218 93.3 245.2 90C272.3 86.7 299.7 80.3 327 79.3C354.3 78.3 381.7 82.7 409 84C436.3 85.3 463.7 83.7 491 81.3C518.3 79 545.7 76 573 76C600.3 76 627.7 79 654.8 77.8C682 76.7 709 71.3 736.2 72.2C763.3 73 790.7 80 818 81.7C845.3 83.3 872.7 79.7 886.3 77.8L900 76L900 0L886.3 0C872.7 0 845.3 0 818 0C790.7 0 763.3 0 736.2 0C709 0 682 0 654.8 0C627.7 0 600.3 0 573 0C545.7 0 518.3 0 491 0C463.7 0 436.3 0 409 0C381.7 0 354.3 0 327 0C299.7 0 272.3 0 245.2 0C218 0 191 0 163.8 0C136.7 0 109.3 0 82 0C54.7 0 27.3 0 13.7 0L0 0Z" fill="#ff5733"></path></svg>