<svg id="visual" viewBox="0 0 900 600" width="900" height="600" xmlns="http://www.w3.org/2000/svg" xmlns:xlink="http://www.w3.org/1999/xlink" version="1.1"><path d="M0 305L129 305L129 273L257 273L257 319L386 319L386 240L514 240L514 305L643 305L643 328L771 328L771 345L900 345L900 254L900 0L900 0L771 0L771 0L643 0L643 0L514 0L514 0L386 0L386 0L257 0L257 0L129 0L129 0L0 0Z" fill="#9900ff"></path><path d="M0 221L129 221L129 223L257 223L257 169L386 169L386 206L514 206L514 175L643 175L643 146L771 146L771 192L900 192L900 174L900 0L900 0L771 0L771 0L643 0L643 0L514 0L514 0L386 0L386 0L257 0L257 0L129 0L129 0L0 0Z" fill="#7700c6"></path><path d="M0 78L129 78L129 141L257 141L257 103L386 103L386 111L514 111L514 90L643 90L643 153L771 153L771 85L900 85L900 58L900 0L900 0L771 0L771 0L643 0L643 0L514 0L514 0L386 0L386 0L257 0L257 0L129 0L129 0L0 0Z" fill="#560090"></path></svg>