<svg id="visual" viewBox="0 0 900 600" width="900" height="600" xmlns="http://www.w3.org/2000/svg" xmlns:xlink="http://www.w3.org/1999/xlink" version="1.1"><path d="M0 210L129 210L129 295L257 295L257 273L386 273L386 185L514 185L514 209L643 209L643 277L771 277L771 294L900 294L900 298L900 0L900 0L771 0L771 0L643 0L643 0L514 0L514 0L386 0L386 0L257 0L257 0L129 0L129 0L0 0Z" fill="#9900ff"></path><path d="M0 215L129 215L129 110L257 110L257 201L386 201L386 249L514 249L514 197L643 197L643 250L771 250L771 213L900 213L900 172L900 0L900 0L771 0L771 0L643 0L643 0L514 0L514 0L386 0L386 0L257 0L257 0L129 0L129 0L0 0Z" fill="#7700c6"></path><path d="M0 87L129 87L129 109L257 109L257 89L386 89L386 159L514 159L514 31L643 31L643 96L771 96L771 106L900 106L900 136L900 0L900 0L771 0L771 0L643 0L643 0L514 0L514 0L386 0L386 0L257 0L257 0L129 0L129 0L0 0Z" fill="#560090"></path></svg>