<svg id="visual" viewBox="0 0 900 600" width="900" height="600" xmlns="http://www.w3.org/2000/svg" xmlns:xlink="http://www.w3.org/1999/xlink" version="1.1"><rect x="0" y="0" width="900" height="600" fill="#140021"></rect><path d="M0 300L129 300L129 266L257 266L257 217L386 217L386 316L514 316L514 347L643 347L643 337L771 337L771 282L900 282L900 268L900 0L900 0L771 0L771 0L643 0L643 0L514 0L514 0L386 0L386 0L257 0L257 0L129 0L129 0L0 0Z" fill="#9900ff"></path><path d="M0 252L129 252L129 186L257 186L257 138L386 138L386 175L514 175L514 204L643 204L643 144L771 144L771 207L900 207L900 157L900 0L900 0L771 0L771 0L643 0L643 0L514 0L514 0L386 0L386 0L257 0L257 0L129 0L129 0L0 0Z" fill="#7700c6"></path><path d="M0 124L129 124L129 52L257 52L257 79L386 79L386 137L514 137L514 129L643 129L643 64L771 64L771 125L900 125L900 115L900 0L900 0L771 0L771 0L643 0L643 0L514 0L514 0L386 0L386 0L257 0L257 0L129 0L129 0L0 0Z" fill="#560090"></path></svg>